<svg width="30" height="25" viewBox="0 0 30 25" fill="none" xmlns="http://www.w3.org/2000/svg">
<g id="Group 4">
<path id="Vector" d="M29.0096 8.32689C28.6208 7.83907 28.0374 7.55921 27.409 7.55921H21.738L18.6628 0.517694C18.4722 0.0811109 17.9636 -0.118402 17.527 0.0723689C17.0903 0.263025 16.8909 0.771614 17.0817 1.20825L19.8552 7.55927H9.59154L12.3651 1.20825C12.5558 0.771614 12.3564 0.263083 11.9198 0.0723689C11.4832 -0.118402 10.9746 0.0809958 10.784 0.517694L7.70879 7.55927H2.03775C1.40936 7.55927 0.826008 7.83907 0.437161 8.32695C0.0554463 8.80592 -0.0854035 9.42166 0.0507303 10.0165L3.0792 23.2445C3.29068 24.1682 4.10777 24.8132 5.06623 24.8132H24.3805C25.339 24.8132 26.1561 24.1682 26.3676 23.2445L29.396 10.0164C29.5322 9.4216 29.3913 8.80586 29.0096 8.32689ZM24.3805 23.0878H5.06623C4.91974 23.0878 4.79143 22.9917 4.76112 22.8593L1.73265 9.63141C1.70889 9.5276 1.74875 9.44949 1.78648 9.40228C1.82145 9.35834 1.90064 9.28466 2.03775 9.28466H6.95531L6.72934 9.80211C6.53868 10.2387 6.73802 10.7473 7.17466 10.938C7.28704 10.9871 7.40414 11.0103 7.51945 11.0103C7.85199 11.0103 8.16889 10.8169 8.31049 10.4927L8.83806 9.28478H20.6088L21.1364 10.4927C21.278 10.817 21.5949 11.0103 21.9274 11.0103C22.0427 11.0103 22.1598 10.9871 22.2722 10.938C22.7089 10.7473 22.9083 10.2387 22.7175 9.80211L22.4916 9.28466H27.4091C27.5462 9.28466 27.6254 9.35834 27.6604 9.40228C27.6981 9.44955 27.738 9.52765 27.7142 9.63135L24.6858 22.8594C24.6554 22.9917 24.527 23.0878 24.3805 23.0878Z" fill="#0F0F0F"/>
</g>
</svg>
