<svg width="28" height="25" viewBox="0 0 28 25" fill="none" xmlns="http://www.w3.org/2000/svg">
<g id="Group 8">
<path id="Vector" d="M14 25C13.6014 25 13.2171 24.8551 12.9176 24.5918C11.7864 23.5992 10.6959 22.6664 9.73373 21.8436L9.72882 21.8393C6.90793 19.4268 4.47198 17.3434 2.7771 15.2911C0.882477 12.9967 0 10.8214 0 8.44489C0 6.13595 0.78891 4.00581 2.22125 2.44657C3.67068 0.868907 5.65952 0 7.82202 0C9.43829 0 10.9185 0.512812 12.2214 1.52407C12.8789 2.03452 13.4749 2.65925 14 3.38794C14.5253 2.65925 15.1211 2.03452 15.7788 1.52407C17.0817 0.512812 18.5619 0 20.1782 0C22.3405 0 24.3295 0.868907 25.779 2.44657C27.2113 4.00581 28 6.13595 28 8.44489C28 10.8214 27.1177 12.9967 25.2231 15.2909C23.5282 17.3434 21.0925 19.4266 18.272 21.8389C17.3082 22.663 16.2159 23.5973 15.0822 24.5922C14.7829 24.8551 14.3984 25 14 25ZM7.82202 1.64606C6.12308 1.64606 4.56235 2.32652 3.42694 3.56224C2.27466 4.81661 1.63998 6.55057 1.63998 8.44489C1.63998 10.4436 2.38019 12.2312 4.03983 14.2408C5.64392 16.1834 8.02988 18.2239 10.7924 20.5866L10.7976 20.5909C11.7634 21.417 12.8582 22.3534 13.9977 23.3533C15.144 22.3515 16.2405 21.4135 17.2082 20.5862C19.9706 18.2235 22.3563 16.1834 23.9604 14.2408C25.6198 12.2312 26.36 10.4436 26.36 8.44489C26.36 6.55057 25.7253 4.81661 24.5731 3.56224C23.4379 2.32652 21.8769 1.64606 20.1782 1.64606C18.9336 1.64606 17.791 2.0431 16.782 2.82604C15.8829 3.52408 15.2565 4.40649 14.8893 5.02393C14.7005 5.34143 14.3681 5.53095 14 5.53095C13.6319 5.53095 13.2995 5.34143 13.1107 5.02393C12.7437 4.40649 12.1173 3.52408 11.218 2.82604C10.209 2.0431 9.06638 1.64606 7.82202 1.64606Z" fill="#0F0F0F"/>
</g>
</svg>
