<svg width="22" height="25" viewBox="0 0 22 25" fill="none" xmlns="http://www.w3.org/2000/svg">
<g id="Group 7">
<path id="Vector" d="M10.7178 12.0426C12.3722 12.0426 13.8046 11.4492 14.9754 10.2785C16.1457 9.10797 16.7393 7.67574 16.7393 6.02112C16.7393 4.36707 16.1459 2.93465 14.9752 1.76373C13.8045 0.593376 12.372 0 10.7178 0C9.06316 0 7.63094 0.593376 6.4604 1.76392C5.28986 2.93446 4.69629 4.36687 4.69629 6.02112C4.69629 7.67574 5.28986 9.10816 6.4604 10.2787C7.63132 11.4491 9.06374 12.0426 10.7178 12.0426ZM7.49647 2.7998C8.39464 1.90163 9.44826 1.46503 10.7178 1.46503C11.9871 1.46503 13.0409 1.90163 13.9393 2.7998C14.8375 3.69816 15.2743 4.75197 15.2743 6.02112C15.2743 7.29065 14.8375 8.34427 13.9393 9.24263C13.0409 10.141 11.9871 10.5776 10.7178 10.5776C9.44864 10.5776 8.39502 10.1408 7.49647 9.24263C6.59811 8.34446 6.16132 7.29065 6.16132 6.02112C6.16132 4.75197 6.59811 3.69816 7.49647 2.7998Z" fill="#0F0F0F"/>
<path id="Vector_2" d="M21.2534 19.2237C21.2196 18.7366 21.1513 18.2052 21.0508 17.6441C20.9493 17.0787 20.8187 16.5443 20.6623 16.0558C20.5005 15.5509 20.281 15.0523 20.0092 14.5746C19.7275 14.0786 19.3964 13.6468 19.0248 13.2915C18.6363 12.9197 18.1606 12.6209 17.6105 12.4028C17.0623 12.186 16.4549 12.0761 15.805 12.0761C15.5498 12.0761 15.303 12.1808 14.8264 12.4912C14.533 12.6825 14.1899 12.9037 13.8069 13.1484C13.4794 13.3571 13.0357 13.5526 12.4878 13.7296C11.9531 13.9026 11.4103 13.9903 10.8743 13.9903C10.3388 13.9903 9.79592 13.9026 9.26091 13.7296C8.7135 13.5528 8.26966 13.3573 7.94274 13.1486C7.56337 12.9062 7.22005 12.6849 6.92231 12.491C6.44604 12.1806 6.19923 12.0759 5.94403 12.0759C5.29401 12.0759 4.68671 12.186 4.13873 12.403C3.58903 12.6207 3.11314 12.9195 2.72424 13.2917C2.35268 13.6472 2.02157 14.0788 1.74004 14.5746C1.46863 15.0523 1.2489 15.5507 1.08716 16.056C0.930946 16.5445 0.800293 17.0787 0.698822 17.6441C0.598114 18.2044 0.530022 18.736 0.496262 19.2243C0.463074 19.7017 0.446289 20.1986 0.446289 20.7006C0.446289 22.0056 0.861137 23.0621 1.6792 23.8412C2.48715 24.6101 3.55603 24.9999 4.85627 24.9999H16.8939C18.1938 24.9999 19.2627 24.6101 20.0708 23.8412C20.8891 23.0626 21.3039 22.0058 21.3039 20.7004C21.3037 20.1967 21.2867 19.6998 21.2534 19.2237ZM19.0607 22.7798C18.5268 23.2879 17.818 23.5349 16.8937 23.5349H4.85627C3.93178 23.5349 3.22301 23.2879 2.68933 22.78C2.16576 22.2816 1.91132 21.6012 1.91132 20.7006C1.91132 20.2321 1.92677 19.7696 1.95767 19.3256C1.98781 18.8899 2.04942 18.4114 2.14078 17.9029C2.231 17.4007 2.34582 16.9294 2.48238 16.5027C2.61342 16.0936 2.79214 15.6884 3.01377 15.2982C3.2253 14.9263 3.46867 14.6072 3.73723 14.3501C3.98843 14.1095 4.30505 13.9127 4.67812 13.7651C5.02316 13.6285 5.41093 13.5537 5.83188 13.5425C5.88319 13.5698 5.97455 13.6218 6.12256 13.7183C6.42373 13.9146 6.77087 14.1385 7.15462 14.3836C7.58721 14.6594 8.14454 14.9085 8.81039 15.1235C9.49113 15.3436 10.1854 15.4554 10.8745 15.4554C11.5637 15.4554 12.2581 15.3436 12.9385 15.1237C13.6049 14.9083 14.162 14.6594 14.5952 14.3832C14.9879 14.1322 15.3253 13.9148 15.6265 13.7183C15.7745 13.622 15.8659 13.5698 15.9172 13.5425C16.3383 13.5537 16.7261 13.6285 17.0713 13.7651C17.4442 13.9127 17.7608 14.1097 18.012 14.3501C18.2806 14.607 18.5239 14.9261 18.7355 15.2984C18.9573 15.6884 19.1362 16.0938 19.2671 16.5025C19.4038 16.9297 19.5188 17.4009 19.6088 17.9027C19.7 18.4121 19.7618 18.8909 19.792 19.3258V19.3261C19.823 19.7685 19.8387 20.2308 19.8389 20.7006C19.8387 21.6014 19.5842 22.2816 19.0607 22.7798Z" fill="#0F0F0F"/>
</g>
</svg>
