<svg width="25" height="25" viewBox="0 0 25 25" fill="none" xmlns="http://www.w3.org/2000/svg">
<g id="Group 2">
<g id="Group">
<g id="Group_2">
<path id="Vector" d="M11.0095 0C4.93901 0 0 4.93901 0 11.0095C0 17.0803 4.93901 22.0189 11.0095 22.0189C17.0803 22.0189 22.0189 17.0803 22.0189 11.0095C22.0189 4.93901 17.0803 0 11.0095 0ZM11.0095 19.9865C6.05962 19.9865 2.03252 15.9594 2.03252 11.0095C2.03252 6.05967 6.05962 2.03252 11.0095 2.03252C15.9593 2.03252 19.9864 6.05962 19.9864 11.0095C19.9864 15.9593 15.9593 19.9865 11.0095 19.9865Z" fill="#0F0F0F"/>
</g>
</g>
<g id="Group_3">
<g id="Group_4">
<path id="Vector_2" d="M24.702 23.2652L18.8754 17.4386C18.4784 17.0416 17.8354 17.0416 17.4384 17.4386C17.0414 17.8353 17.0414 18.479 17.4384 18.8756L23.265 24.7022C23.4634 24.9007 23.7233 25 23.9835 25C24.2433 25 24.5034 24.9007 24.702 24.7022C25.099 24.3055 25.099 23.6619 24.702 23.2652Z" fill="#0F0F0F"/>
</g>
</g>
</g>
</svg>
