<svg width="122" height="104" viewBox="0 0 122 104" fill="none" xmlns="http://www.w3.org/2000/svg">
<path d="M60.5 0L29 18.1895V54.5684L60.5 72.7579L92 54.5684V18.1895L60.5 0ZM85.0369 50.5895L60.4526 64.7526L35.9158 50.5895V22.1684L60.5 7.9579L85.0842 22.1684V50.5895H85.0369Z" fill="#0F0F0F"/>
<path d="M79.1632 25.4369V47.3211L66.2316 54.9474V42.8684H54.7685V54.9474L41.8369 47.3211V25.4369L54.7685 17.8105V30.2211H66.2316V17.8105L79.1632 25.4369Z" fill="#0F0F0F"/>
<path d="M15.3114 103.689H11.6584V96.5385H3.61411V103.689H0V86.7065H3.61411V93.3907H11.6195V86.7065H15.2725V103.689H15.3114Z" fill="#0F0F0F"/>
<path d="M35.1302 103.689H23.1221V86.7065H35.1302V89.8932H26.7362V93.4684H34.9748V96.655H26.7362V100.502H35.1302V103.689Z" fill="#0F0F0F"/>
<path d="M50.6367 104C48.0719 104 45.8956 103.184 44.1857 101.552C42.4758 99.9194 41.582 97.8209 41.582 95.2172C41.582 92.6135 42.437 90.515 44.1857 88.8828C45.8956 87.2507 48.0719 86.4346 50.6367 86.4346C53.8234 86.4346 56.1939 87.8336 57.7483 90.5927L54.6394 92.1083C54.2508 91.4088 53.7068 90.787 53.0073 90.3207C52.2689 89.8544 51.4917 89.6212 50.6367 89.6212C49.0823 89.6212 47.7999 90.1653 46.8283 91.2145C45.8179 92.2638 45.3127 93.5851 45.3127 95.2172C45.3127 96.8494 45.8179 98.1707 46.8283 99.2199C47.8387 100.269 49.1211 100.813 50.6367 100.813C51.4917 100.813 52.2689 100.58 53.0073 100.114C53.7456 99.6474 54.2897 99.0645 54.6394 98.3261L57.7483 99.8417C56.1162 102.601 53.7456 104 50.6367 104Z" fill="#0F0F0F"/>
<path d="M71.9319 103.689H68.2789V89.8932H63.3047V86.7065H76.8673V89.8932H71.9319V103.689Z" fill="#0F0F0F"/>
<path d="M91.7127 104C89.1479 104 87.0105 103.184 85.3395 101.513C83.6684 99.8417 82.8135 97.7432 82.8135 95.2172C82.8135 92.6524 83.6684 90.5539 85.3395 88.9217C87.0105 87.2507 89.1479 86.4346 91.7127 86.4346C94.2776 86.4346 96.415 87.2507 98.086 88.9217C99.757 90.5539 100.612 92.6912 100.612 95.2561C100.612 97.8209 99.757 99.9195 98.086 101.59C96.415 103.184 94.2776 104 91.7127 104ZM87.982 99.2199C88.9147 100.269 90.1583 100.813 91.7127 100.813C93.2672 100.813 94.5107 100.269 95.4434 99.2199C96.3761 98.1707 96.8813 96.8494 96.8813 95.2172C96.8813 93.5851 96.4149 92.2638 95.4434 91.2145C94.5107 90.1653 93.2283 89.6212 91.7127 89.6212C90.1583 89.6212 88.9147 90.1653 87.982 91.2145C87.0494 92.2638 86.583 93.5851 86.583 95.2172C86.583 96.8105 87.0494 98.1318 87.982 99.2199Z" fill="#0F0F0F"/>
<path d="M121.364 103.689H117.206L113.864 97.6654H111.222V103.689H107.607V86.7065H115.574C117.323 86.7065 118.722 87.2117 119.732 88.2221C120.743 89.2325 121.287 90.5538 121.287 92.186C121.287 93.585 120.937 94.712 120.198 95.5669C119.46 96.4219 118.605 96.9659 117.556 97.238L121.364 103.689ZM115.03 94.4788C115.768 94.4788 116.39 94.2845 116.856 93.857C117.323 93.4296 117.556 92.8855 117.556 92.186C117.556 91.4865 117.323 90.9424 116.856 90.515C116.39 90.0875 115.768 89.8932 115.03 89.8932H111.222V94.4788H115.03Z" fill="#0F0F0F"/>
</svg>
