<svg width="177" height="151" viewBox="0 0 177 151" fill="none" xmlns="http://www.w3.org/2000/svg">
<path d="M87.8411 0L42.1055 26.4098V79.2293L87.8411 105.639L133.577 79.2293V26.4098L87.8411 0ZM123.467 73.4521L87.7723 94.016L52.1467 73.4521V32.1869L87.8411 11.5543L123.536 32.1869V73.4521H123.467Z" fill="white"/>
<path d="M114.938 36.9327V68.7069L96.1625 79.7798V62.2421H79.5188V79.7798L60.7432 68.7069V36.9327L79.5188 25.8599V43.879H96.1625V25.8599L114.938 36.9327Z" fill="white"/>
<path d="M22.231 150.549H16.9271V140.167H5.24741V150.549H0V125.892H5.24741V135.596H16.8707V125.892H22.1745V150.549H22.231Z" fill="white"/>
<path d="M51.0072 150.549H33.5723V125.892H51.0072V130.518H38.8197V135.709H50.7815V140.336H38.8197V145.922H51.0072V150.549Z" fill="white"/>
<path d="M73.5198 151C69.7958 151 66.6361 149.815 64.1534 147.445C61.6708 145.076 60.373 142.029 60.373 138.248C60.373 134.468 61.6144 131.421 64.1534 129.051C66.6361 126.681 69.7958 125.497 73.5198 125.497C78.1465 125.497 81.5884 127.528 83.8453 131.534L79.3314 133.734C78.7672 132.719 77.9773 131.816 76.9616 131.139C75.8896 130.462 74.7611 130.123 73.5198 130.123C71.2628 130.123 69.4009 130.913 67.9903 132.437C66.5232 133.96 65.7897 135.879 65.7897 138.248C65.7897 140.618 66.5232 142.537 67.9903 144.06C69.4573 145.583 71.3193 146.373 73.5198 146.373C74.7611 146.373 75.8896 146.035 76.9616 145.358C78.0337 144.681 78.8236 143.834 79.3314 142.762L83.8453 144.963C81.4755 148.969 78.0337 151 73.5198 151Z" fill="white"/>
<path d="M104.44 150.549H99.1363V130.518H91.9141V125.892H111.606V130.518H104.44V150.549Z" fill="white"/>
<path d="M133.16 151C129.436 151 126.333 149.815 123.907 147.389C121.481 144.963 120.239 141.916 120.239 138.248C120.239 134.524 121.481 131.477 123.907 129.108C126.333 126.681 129.436 125.497 133.16 125.497C136.884 125.497 139.988 126.681 142.414 129.108C144.84 131.477 146.081 134.581 146.081 138.305C146.081 142.029 144.84 145.076 142.414 147.502C139.988 149.815 136.884 151 133.16 151ZM127.744 144.06C129.098 145.583 130.903 146.373 133.16 146.373C135.417 146.373 137.223 145.583 138.577 144.06C139.931 142.537 140.665 140.618 140.665 138.248C140.665 135.879 139.988 133.96 138.577 132.437C137.223 130.913 135.361 130.123 133.16 130.123C130.903 130.123 129.098 130.913 127.744 132.437C126.389 133.96 125.712 135.879 125.712 138.248C125.712 140.562 126.389 142.48 127.744 144.06Z" fill="white"/>
<path d="M176.211 150.549H170.174L165.322 141.803H161.485V150.549H156.237V125.892H167.804C170.343 125.892 172.374 126.625 173.842 128.092C175.309 129.559 176.098 131.478 176.098 133.847C176.098 135.879 175.591 137.515 174.519 138.756C173.447 139.998 172.205 140.787 170.682 141.182L176.211 150.549ZM167.014 137.176C168.086 137.176 168.989 136.894 169.666 136.274C170.343 135.653 170.682 134.863 170.682 133.847C170.682 132.832 170.343 132.042 169.666 131.421C168.989 130.8 168.086 130.518 167.014 130.518H161.485V137.176H167.014Z" fill="white"/>
</svg>
