<svg width="17" height="27" viewBox="0 0 17 27" fill="none" xmlns="http://www.w3.org/2000/svg">
<g id="Vector">
<path d="M15.2498 7.17199C15.6642 7.17199 16 6.84393 16 6.43957V1.73242C16 1.32787 15.6642 1 15.2498 1H9.62479C6.99582 1 4.85701 3.08817 4.85701 5.65488V10.4141H1.75019C1.33583 10.4141 1 10.742 1 11.1465V15.8535C1 16.258 1.33583 16.5859 1.75019 16.5859H4.85701V25.2676C4.85701 25.6721 5.19283 26 5.60719 26H10.4285C10.8429 26 11.1787 25.6721 11.1787 25.2676V16.5859H14.2855C14.6432 16.5859 14.9511 16.3395 15.0212 15.9971L15.9853 11.2901C16.0295 11.075 15.9725 10.8518 15.8298 10.6821C15.6874 10.5125 15.4745 10.4141 15.2498 10.4141H11.1787V7.17199H15.2498ZM10.4285 11.8789H14.3347L13.6705 15.1211H10.4285C10.0141 15.1211 9.67832 15.4489 9.67832 15.8535V24.5352H6.35738V15.8535C6.35738 15.4489 6.02155 15.1211 5.60719 15.1211H2.50037V11.8789H5.60719C6.02155 11.8789 6.35738 11.5511 6.35738 11.1465V5.65488C6.35738 3.89593 7.82317 2.46484 9.62479 2.46484H14.4996V5.70715H10.4285C10.0141 5.70715 9.67832 6.03502 9.67832 6.43957V11.1465C9.67832 11.5511 10.0141 11.8789 10.4285 11.8789Z" fill="white"/>
<path d="M16.15 6.43957C16.15 6.93011 15.7436 7.32199 15.2498 7.32199H11.3287V10.2641H15.2498C15.5181 10.2641 15.7733 10.3816 15.9447 10.5856C15.9447 10.5856 15.9447 10.5856 15.9447 10.5856L15.8298 10.6821C15.9725 10.8518 16.0295 11.075 15.9853 11.2901L16.15 6.43957ZM16.15 6.43957V1.73242C16.15 1.24166 15.7436 0.85 15.2498 0.85H9.62479C6.91639 0.85 4.70701 3.00195 4.70701 5.65488V10.2641H1.75019C1.25639 10.2641 0.85 10.6558 0.85 11.1465V15.8535C0.85 16.3442 1.25639 16.7359 1.75019 16.7359H4.70701V25.2676C4.70701 25.7583 5.1134 26.15 5.60719 26.15H10.4285C10.9223 26.15 11.3287 25.7583 11.3287 25.2676V16.7359H14.2855C14.712 16.7359 15.0833 16.4417 15.1682 16.0272L16.1323 11.3203L16.15 6.43957ZM10.4285 12.0289H14.1509L13.5481 14.9711H10.4285C9.93471 14.9711 9.52832 15.3627 9.52832 15.8535V24.3852H6.50738V15.8535C6.50738 15.3627 6.10099 14.9711 5.60719 14.9711H2.65037V12.0289H5.60719C6.10099 12.0289 6.50738 11.6373 6.50738 11.1465V5.65488C6.50738 3.98214 7.90261 2.61484 9.62479 2.61484H14.3496V5.55715H10.4285C9.93471 5.55715 9.52832 5.94881 9.52832 6.43957V11.1465C9.52832 11.6373 9.93471 12.0289 10.4285 12.0289Z" stroke="white" stroke-opacity="0.4" stroke-width="0.3"/>
</g>
</svg>
