<svg width="23" height="24" viewBox="0 0 23 24" fill="none" xmlns="http://www.w3.org/2000/svg">
<g id="instagram (1) 1" clip-path="url(#clip0_258_40)">
<path id="Vector" d="M16.8741 -0.0991891V-0.1H16.7741H6.22588C2.73368 -0.1 -0.1 2.86313 -0.1 6.49657V17.5036C-0.1 21.1368 2.73368 24.1 6.22588 24.1H16.7743C20.2663 24.1 23.1 21.1368 23.1 17.5036V6.49657C23.1 2.89787 20.3202 -0.0432687 16.8741 -0.0991891ZM21.5516 17.5036C21.5516 20.2587 19.4044 22.493 16.7741 22.493H6.22588C3.59556 22.493 1.44836 20.2587 1.44836 17.5036V6.49657C1.44836 3.74129 3.59556 1.50698 6.22588 1.50698H16.7743C19.4044 1.50698 21.5516 3.74129 21.5516 6.49657V17.5036Z" fill="white" stroke="white" stroke-width="0.2"/>
<path id="Vector_2" d="M11.4998 5.33774C7.97286 5.33774 5.11094 8.33035 5.11094 12C5.11094 15.6697 7.97286 18.6624 11.4998 18.6624C15.0268 18.6624 17.8887 15.6697 17.8887 12C17.8887 8.33035 15.0268 5.33774 11.4998 5.33774ZM11.4998 17.0554C8.83492 17.0554 6.65929 14.7916 6.65929 12C6.65929 9.2087 8.83492 6.94472 11.4998 6.94472C14.1649 6.94472 16.3403 9.2087 16.3403 12C16.3403 14.7916 14.1649 17.0554 11.4998 17.0554Z" fill="white" stroke="white" stroke-width="0.2"/>
<path id="Vector_3" d="M17.9393 3.00718C16.8554 3.00718 15.9811 3.92594 15.9811 5.04626C15.9811 6.16676 16.8554 7.08553 17.9393 7.08553C19.0233 7.08553 19.8978 6.16677 19.8978 5.04626C19.8978 3.92574 19.0233 3.00718 17.9393 3.00718ZM17.9393 5.47836C17.7174 5.47836 17.5294 5.28842 17.5294 5.04626C17.5294 4.80394 17.7174 4.61416 17.9393 4.61416C18.1615 4.61416 18.3495 4.80396 18.3495 5.04626C18.3495 5.2884 18.1615 5.47836 17.9393 5.47836Z" fill="white" stroke="white" stroke-width="0.2"/>
</g>
<defs>
<clipPath id="clip0_258_40">
<rect width="23" height="24" fill="white"/>
</clipPath>
</defs>
</svg>
