<svg width="25" height="17" viewBox="0 0 25 17" fill="none" xmlns="http://www.w3.org/2000/svg">
<g id="Vector">
<path d="M2.34377 0H22.6562C23.9487 0 25 0.953208 25 2.12501V14.875C25 16.0468 23.9487 17 22.6562 17H2.34377C1.05133 17 0 16.0468 0 14.875V2.12501C0 0.953208 1.05133 0 2.34377 0ZM2.34377 1.41666C2.23762 1.41666 2.13664 1.43663 2.04432 1.4715L12.5 9.6877L22.9557 1.4715C22.8634 1.43667 22.7624 1.41666 22.6563 1.41666H2.34377ZM2.34377 15.5833H22.6562C23.0873 15.5833 23.4375 15.2658 23.4375 14.8749V2.96821L13.0119 11.1604C12.8647 11.2759 12.6823 11.3333 12.5 11.3333C12.3177 11.3333 12.1353 11.2759 11.9881 11.1604L1.56249 2.96821V14.875C1.56255 15.2658 1.91271 15.5833 2.34377 15.5833Z" fill="white"/>
<path d="M23.6375 2.5567L23.3139 2.81095L12.8885 11.003L23.6375 2.5567ZM23.6375 2.5567V2.96821M23.6375 2.5567V2.96821M23.6375 2.96821V14.8749C23.6375 15.3943 23.1788 15.7833 22.6562 15.7833H2.34377C1.82114 15.7833 1.36256 15.3943 1.36249 14.875V2.96821V2.5567M23.6375 2.96821L1.36249 2.5567M1.36249 2.5567L1.68606 2.81095M1.36249 2.5567L1.68606 2.81095M1.68606 2.81095L12.1115 11.003C12.2209 11.0888 12.3589 11.1333 12.5 11.1333C12.641 11.1333 12.779 11.0888 12.8884 11.0031L1.68606 2.81095ZM1.92075 1.62875L1.64198 1.40969L1.97365 1.2844C2.0875 1.24139 2.21238 1.21666 2.34377 1.21666H22.6563C22.7877 1.21666 22.9126 1.24146 23.0263 1.28437L23.3582 1.40957L23.0793 1.62875L12.6236 9.84496L12.5 9.94206L12.3764 9.84496L1.92075 1.62875ZM22.6562 0.2H2.34377C1.1429 0.2 0.200001 1.08165 0.200001 2.12501V14.875C0.200001 15.9183 1.1429 16.8 2.34377 16.8H22.6562C23.8571 16.8 24.8 15.9183 24.8 14.875V2.12501C24.8 1.08165 23.8571 0.2 22.6562 0.2Z" stroke="white" stroke-opacity="0.4" stroke-width="0.4"/>
</g>
</svg>
