<svg width="23" height="24" viewBox="0 0 23 24" fill="none" xmlns="http://www.w3.org/2000/svg">
<g id=".fab.fa-viber">
<path id="Vector" d="M20.1917 2.337C19.5965 1.78863 17.1874 0.0404148 11.8162 0.0169803C11.8162 0.0169803 5.48417 -0.36266 2.40019 2.46823C0.684776 4.18364 0.0801641 6.70052 0.0145473 9.81731C-0.0510694 12.9341 -0.130747 18.774 5.49823 20.3582H5.50292L5.49823 22.7766C5.49823 22.7766 5.46074 23.7562 6.10753 23.953C6.88556 24.1968 7.34488 23.4515 8.09009 22.6501C8.49786 22.2095 9.06029 21.5627 9.48679 21.0706C13.3394 21.394 16.2969 20.6534 16.6343 20.5457C17.4124 20.2926 21.8134 19.7301 22.5258 13.8902C23.2663 7.86287 22.1696 4.0571 20.1917 2.337ZM20.8432 13.4497C20.2386 18.3241 16.6718 18.6334 16.0157 18.8443C15.7344 18.9334 13.1332 19.5801 9.86643 19.3692C9.86643 19.3692 7.42924 22.3079 6.66996 23.0719C6.42155 23.3203 6.14971 23.2969 6.1544 22.8047C6.1544 22.4813 6.17315 18.7881 6.17315 18.7881C6.16846 18.7881 6.16846 18.7881 6.17315 18.7881C1.40187 17.4663 1.68309 12.4935 1.73464 9.8923C1.7862 7.29107 2.27833 5.15852 3.73127 3.72433C6.34188 1.35744 11.7178 1.70896 11.7178 1.70896C16.2594 1.7277 18.4341 3.09628 18.9403 3.5556C20.6135 4.98979 21.4665 8.42061 20.8432 13.4497ZM14.3284 9.66264C14.3471 10.0657 13.7425 10.0938 13.7238 9.69077C13.6722 8.65964 13.1895 8.15814 12.1958 8.1019C11.7928 8.07847 11.8303 7.47386 12.2286 7.49729C13.5363 7.56759 14.2628 8.3175 14.3284 9.66264ZM15.2798 10.1923C15.3267 8.20501 14.0847 6.64896 11.7271 6.47554C11.3287 6.44742 11.3709 5.84281 11.7693 5.87093C14.4877 6.06778 15.936 7.93786 15.8844 10.2063C15.8797 10.6094 15.2704 10.5907 15.2798 10.1923ZM17.4827 10.8203C17.4874 11.2234 16.8781 11.2281 16.8781 10.825C16.8499 7.00516 14.3049 4.92418 11.2163 4.90074C10.8179 4.89605 10.8179 4.29613 11.2163 4.29613C14.6705 4.31956 17.4499 6.7052 17.4827 10.8203ZM16.953 15.4182V15.4275C16.4469 16.3181 15.5001 17.3023 14.5252 16.9883L14.5159 16.9742C13.5269 16.6977 11.1975 15.4978 9.72583 14.3261C8.96655 13.7262 8.27288 13.0185 7.73858 12.3389C7.25583 11.7343 6.76839 11.0172 6.29501 10.1548C5.2967 8.35031 5.07641 7.54416 5.07641 7.54416C4.76239 6.56928 5.74195 5.62253 6.63715 5.11634H6.64653C7.07772 4.89137 7.49017 4.96636 7.7667 5.29913C7.7667 5.29913 8.34788 5.99279 8.59628 6.33494C8.83063 6.65365 9.14465 7.16452 9.30869 7.45042C9.59459 7.96129 9.41649 8.48154 9.13528 8.69714L8.57285 9.14708C8.28695 9.37674 8.32444 9.80325 8.32444 9.80325C8.32444 9.80325 9.15871 12.9575 12.2755 13.7543C12.2755 13.7543 12.702 13.7918 12.9317 13.5059L13.3816 12.9435C13.5972 12.6623 14.1175 12.4842 14.6283 12.7701C15.3173 13.1591 16.1938 13.7637 16.7749 14.3121C17.103 14.5792 17.178 14.987 16.953 15.4182Z" fill="white"/>
</g>
</svg>
